<?xml version="1.0" encoding="utf-8"?>
<!-- Generator: Adobe Illustrator 16.0.4, SVG Export Plug-In . SVG Version: 6.00 Build 0)  -->
<!DOCTYPE svg PUBLIC "-//W3C//DTD SVG 1.1//EN" "http://www.w3.org/Graphics/SVG/1.1/DTD/svg11.dtd">
<svg version="1.1" id="Ebene_1" xmlns="http://www.w3.org/2000/svg" xmlns:xlink="http://www.w3.org/1999/xlink" x="0px" y="0px"
	 width="203.472px" height="75px" viewBox="0 0 203.472 75" enable-background="new 0 0 203.472 75" xml:space="preserve">
<path fill="#9B9B9B" d="M71.454,66.11h10.161V35.09H71.454V66.11z M71.454,31.205h10.161v-7.771H71.454V31.205z"/>
<g>
	<defs>
		<rect id="SVGID_1_" x="1.917" y="1.197" width="200" height="65.81"/>
	</defs>
	<clipPath id="SVGID_2_">
		<use xlink:href="#SVGID_1_"  overflow="visible"/>
	</clipPath>
	<path clip-path="url(#SVGID_2_)" fill="#9B9B9B" d="M36.902,66.11h10.161V49.195c0-3.407,1.673-6.634,5.499-6.634
		c5.558,0,5.08,4.303,5.08,8.547V66.11h10.161V46.207c0-4.482-0.837-12.014-11.177-12.014c-3.706,0-7.89,1.972-9.742,5.14h-0.12
		v-4.244h-9.862V66.11z"/>
	<path clip-path="url(#SVGID_2_)" fill="#9B9B9B" d="M32.817,35.09H22.657v16.616c0,5.499-3.347,6.933-5.559,6.933
		c-3.227,0-5.02-1.434-5.02-5.558V35.09H1.917v18.647c0,8.129,2.57,13.27,11.476,13.27c3.586,0,7.531-1.973,9.443-5.141h0.12v4.244
		h9.862V35.09z"/>
</g>
<g>
	<defs>
		<path id="SVGID_3_" d="M124.971,50.63c0-3.945,1.434-8.666,6.155-8.666c4.724,0,6.217,4.721,6.217,8.666
			c0,3.944-1.493,8.607-6.217,8.607C126.405,59.237,124.971,54.574,124.971,50.63 M114.809,50.63
			c0,9.324,6.695,16.377,16.317,16.377c9.624,0,16.378-7.053,16.378-16.377s-6.754-16.438-16.378-16.438
			C121.504,34.192,114.809,41.306,114.809,50.63 M185.69,41.066c3.408,0,5.857,2.868,6.037,6.335h-12.611
			C179.713,43.637,182.104,41.066,185.69,41.066 M168.955,50.511c0,10.399,6.873,16.496,16.976,16.496
			c6.934,0,13.567-3.108,15.42-10.281h-9.502c-0.957,2.272-3.349,3.408-5.799,3.408c-4.304,0-6.755-2.81-6.934-7.054h22.773
			c0.016-0.364,0.025-0.725,0.027-1.083v-0.31c-0.057-9.855-5.604-17.495-16.227-17.495
			C176.545,34.192,168.955,41.007,168.955,50.511 M152.25,25.706v9.383h-5.142v6.576h5.142v13.807
			c0,8.427,2.212,10.938,10.878,10.938c1.854,0,3.706-0.239,5.559-0.299v-7.472c-0.896,0-1.793,0.119-2.629,0.119
			c-2.213,0-3.646-0.537-3.646-2.987V41.665h6.275v-6.576h-6.275v-9.383H152.25z M128.459,1.197l-1.45,2.073
			c-0.743-0.37-1.374-0.632-1.893-0.788c-0.519-0.153-0.925-0.2-1.218-0.141c-0.48,0.099-2.52,3.435-6.115,10.01
			c-1.877,3.44-3.419,6.222-4.623,8.34l-5.513,10.506c-3.988,7.645-3.225,6.609-5.433,11.619c-1.796,4.07-3.004,7.331-3.649,9.812
			l-4.319-12.006c-0.728-2.052-2.185-3.575-4.9-3.575c-2.714,0-4.899,2.317-4.899,4.701c0,0.927,0.265,1.787,0.53,2.449
			l8.005,17.736c1.126,2.647,2.98,4.369,5.695,4.369h0.529c2.714,0,4.568-1.787,5.694-4.369l0.593-1.37
			c0.551-0.274,1.079-0.591,1.568-0.974c1.606-4.899,3.326-9.683,5.16-14.353c1.834-4.671,10.988-25.265,12.963-29.247
			c1.975-3.984,3.99-8.005,6.049-12.061c-0.393-0.553-0.822-1.055-1.291-1.51C129.473,1.966,128.979,1.559,128.459,1.197z"/>
	</defs>
	<clipPath id="SVGID_4_">
		<use xlink:href="#SVGID_3_"  overflow="visible"/>
	</clipPath>
	
		<linearGradient id="SVGID_5_" gradientUnits="userSpaceOnUse" x1="-89.1694" y1="135.7891" x2="-88.1694" y2="135.7891" gradientTransform="matrix(111.31 -22.8993 -22.8993 -111.31 13120.1602 13118.8096)">
		<stop  offset="0" style="stop-color:#E3002B"/>
		<stop  offset="1" style="stop-color:#922436"/>
	</linearGradient>
	<polygon clip-path="url(#SVGID_4_)" fill="url(#SVGID_5_)" points="71.458,3.869 197.147,-21.988 214.906,64.335 89.217,90.192 	
		"/>
</g>
</svg>
