<?xml version="1.0" encoding="utf-8"?>
<!-- Generator: Adobe Illustrator 16.0.4, SVG Export Plug-In . SVG Version: 6.00 Build 0)  -->
<!DOCTYPE svg PUBLIC "-//W3C//DTD SVG 1.1//EN" "http://www.w3.org/Graphics/SVG/1.1/DTD/svg11.dtd">
<svg version="1.1" id="Ebene_1" xmlns="http://www.w3.org/2000/svg" xmlns:xlink="http://www.w3.org/1999/xlink" x="0px" y="0px"
	 width="66.058px" height="75px" viewBox="71.357 0 66.058 75" enable-background="new 71.357 0 66.058 75" xml:space="preserve">
<g>
	<g>
		<defs>
			<path id="SVGID_1_" d="M128.459,1.197l-1.45,2.073c-0.742-0.37-1.374-0.632-1.893-0.788c-0.519-0.153-0.925-0.2-1.218-0.141
				c-0.48,0.099-2.521,3.435-6.115,10.01c-1.877,3.44-3.419,6.222-4.623,8.34l-5.513,10.506c-3.988,7.645-3.226,6.609-5.434,11.619
				c-1.796,4.069-3.004,7.33-3.648,9.812l-4.319-12.006c-0.728-2.052-2.185-3.575-4.899-3.575s-4.899,2.317-4.899,4.701
				c0,0.927,0.265,1.787,0.53,2.449l8.005,17.736c1.126,2.646,2.979,4.368,5.694,4.368h0.529c2.714,0,4.568-1.786,5.694-4.368
				l0.593-1.371c0.551-0.273,1.079-0.59,1.568-0.974c1.605-4.899,3.326-9.683,5.16-14.353c1.834-4.672,10.987-25.265,12.963-29.247
				c1.975-3.984,3.989-8.005,6.049-12.062c-0.394-0.553-0.822-1.055-1.291-1.51C129.473,1.966,128.979,1.559,128.459,1.197z"/>
		</defs>
		<clipPath id="SVGID_2_">
			<use xlink:href="#SVGID_1_"  overflow="visible"/>
		</clipPath>
		
			<linearGradient id="SVGID_3_" gradientUnits="userSpaceOnUse" x1="-464.6458" y1="185.0117" x2="-463.6462" y2="185.0117" gradientTransform="matrix(111.31 -22.8993 22.8993 111.31 47568.3477 -31187.7969)">
			<stop  offset="0" style="stop-color:#56D400"/>
			<stop  offset="0.5042" style="stop-color:#002A21"/>
		</linearGradient>
		<polygon clip-path="url(#SVGID_2_)" fill="url(#SVGID_3_)" points="71.458,3.869 197.147,-21.988 214.906,64.335 89.217,90.191 		
			"/>
	</g>
</g>
</svg>
