<?xml version="1.0" encoding="utf-8"?>
<!-- Generator: Adobe Illustrator 16.0.4, SVG Export Plug-In . SVG Version: 6.00 Build 0)  -->
<!DOCTYPE svg PUBLIC "-//W3C//DTD SVG 1.1//EN" "http://www.w3.org/Graphics/SVG/1.1/DTD/svg11.dtd">
<svg version="1.1" id="Ebene_1" xmlns="http://www.w3.org/2000/svg" xmlns:xlink="http://www.w3.org/1999/xlink" x="0px" y="0px"
	 width="66.058px" height="75px" viewBox="71.357 0 66.058 75" enable-background="new 71.357 0 66.058 75" xml:space="preserve">
<g display="none">
	<g display="inline">
		<defs>
			<path id="SVGID_1_" d="M128.459,1.197l-1.45,2.073c-0.742-0.37-1.374-0.632-1.893-0.788c-0.519-0.153-0.925-0.2-1.218-0.141
				c-0.48,0.099-2.521,3.435-6.115,10.01c-1.877,3.44-3.419,6.222-4.623,8.34l-5.513,10.506c-3.988,7.645-3.226,6.609-5.434,11.619
				c-1.796,4.069-3.004,7.33-3.648,9.812l-4.319-12.006c-0.728-2.052-2.185-3.575-4.899-3.575s-4.899,2.317-4.899,4.701
				c0,0.927,0.265,1.787,0.53,2.449l8.005,17.736c1.126,2.646,2.979,4.368,5.694,4.368h0.529c2.714,0,4.568-1.786,5.694-4.368
				l0.593-1.371c0.551-0.273,1.079-0.59,1.568-0.974c1.605-4.899,3.326-9.683,5.16-14.353c1.834-4.672,10.987-25.265,12.963-29.247
				c1.975-3.984,3.989-8.005,6.049-12.062c-0.394-0.553-0.822-1.055-1.291-1.51C129.473,1.966,128.979,1.559,128.459,1.197z"/>
		</defs>
		<clipPath id="SVGID_2_">
			<use xlink:href="#SVGID_1_"  overflow="visible"/>
		</clipPath>
		
			<linearGradient id="SVGID_3_" gradientUnits="userSpaceOnUse" x1="-464.6448" y1="185.0117" x2="-463.6452" y2="185.0117" gradientTransform="matrix(111.31 -22.8993 22.8993 111.31 47568.2852 -31187.7969)">
			<stop  offset="0" style="stop-color:#56D400"/>
			<stop  offset="0.5042" style="stop-color:#002A21"/>
		</linearGradient>
		<polygon clip-path="url(#SVGID_2_)" fill="url(#SVGID_3_)" points="71.458,3.869 197.147,-21.988 214.906,64.335 89.217,90.191 		
			"/>
	</g>
</g>
<g>
	<defs>
		<path id="SVGID_4_" d="M132.662,5.959c-3.104,3.938-6.152,7.846-9.15,11.722c-2.997,3.878-5.958,7.771-8.882,11.679
			c1.551,3.162,3.133,6.465,4.743,9.911c1.611,3.444,3.267,7.107,4.967,10.984l-1.298,1.073l0.09,0.939
			c-0.27,0.27-0.56,0.515-0.872,0.739c-0.313,0.223-0.666,0.425-1.053,0.604l0.492,1.477c-0.328,0.598-0.745,1.081-1.252,1.454
			c-0.508,0.374-1.059,0.619-1.655,0.738c-0.627-0.029-1.963-1.499-4.005-4.407c-2.043-2.908-4.75-7.182-8.121-12.819
			c-3.192,4.385-6.286,8.904-9.284,13.558c-2.999,4.653-5.9,9.456-8.704,14.407c-0.715,0.358-1.461,0.626-2.236,0.806
			c-0.777,0.179-1.583,0.269-2.417,0.269h-0.537c-0.866-0.806-1.559-1.663-2.08-2.573s-0.783-1.633-0.783-2.17
			c0-0.298,0.045-0.656,0.133-1.074c0.09-0.418,0.224-0.939,0.404-1.565l-0.805-1.477c1.073-2.714,3.347-6.539,6.823-11.478
			c3.474-4.937,8.194-11.102,14.16-18.5c-1.192-3.161-2.393-6.458-3.601-9.889c-1.209-3.43-2.543-7.338-4.005-11.723
			c0.387-0.834,0.805-1.505,1.253-2.014c0.447-0.507,0.85-0.76,1.208-0.76c0.239,0,0.477,0.067,0.717,0.202
			c0.238,0.134,0.491,0.351,0.76,0.648c0.18-0.179,0.387-0.32,0.626-0.425c0.239-0.105,0.492-0.157,0.761-0.157h0.358
			c0.208-0.297,0.432-0.552,0.67-0.76c0.239-0.208,0.508-0.402,0.806-0.582h0.089c0.866,0,2.507,2.566,4.922,7.695
			c1.461,3.103,2.685,5.638,3.669,7.607c1.76-2.029,4.027-4.699,6.801-8.009c5.309-6.324,8.232-9.485,8.77-9.485
			c0.329,0,0.754,0.142,1.275,0.425s1.142,0.708,1.857,1.275l2.013-1.924c0.477,0.508,0.917,1.059,1.319,1.656
			C132.012,4.632,132.363,5.273,132.662,5.959z"/>
	</defs>
	<clipPath id="SVGID_5_">
		<use xlink:href="#SVGID_4_"  overflow="visible"/>
	</clipPath>
	
		<linearGradient id="SVGID_6_" gradientUnits="userSpaceOnUse" x1="-464.7419" y1="184.8984" x2="-463.7584" y2="184.8984" gradientTransform="matrix(111.31 -22.8993 22.8993 111.31 47568.2852 -31187.7969)">
		<stop  offset="0" style="stop-color:#E3002B"/>
		<stop  offset="1" style="stop-color:#922436"/>
	</linearGradient>
	<polygon clip-path="url(#SVGID_5_)" fill="url(#SVGID_6_)" points="58.308,-5.902 181.929,-31.334 199.396,53.568 75.775,78.999 	
		"/>
</g>
</svg>
